<svg width="16" height="17" viewBox="0 0 16 17" fill="none" xmlns="http://www.w3.org/2000/svg">
<path d="M8.3611 9.78314C7.68858 9.67348 7.04302 9.36004 6.5245 8.84279C5.20799 7.52952 5.20799 5.40055 6.5245 4.08779L8.81584 1.98469C10.1324 0.671932 12.2661 0.671932 13.5821 1.98469C14.8986 3.29797 14.8986 5.42642 13.5821 6.73917L12.2687 8.08814" stroke="#657888" stroke-linecap="round"/>
<path d="M7.43497 6.41394C8.17386 6.49256 8.89149 6.81429 9.45719 7.37911C10.7737 8.69239 10.7737 10.8214 9.45719 12.1341L6.75364 14.831C5.43712 16.1443 3.30342 16.1443 1.9869 14.831C0.670897 13.5183 0.670897 11.3898 1.9869 10.0765L3.43875 8.62877" stroke="#657888" stroke-linecap="round"/>
</svg>
