<svg width="17" height="15" viewBox="0 0 17 15" fill="none" xmlns="http://www.w3.org/2000/svg">
<path d="M8.94446 2.93154L8.36385 3.4063L8.94446 4.11635L9.52506 3.4063L8.94446 2.93154ZM7.00001 0.999962L6.67177 1.67432L7.00001 0.999962ZM4.00001 0.999962L3.75049 0.292686L4.00001 0.999962ZM2.00001 2.99996L1.27241 2.81806L2.00001 2.99996ZM3.24363 9.14383L3.8337 8.68089H3.8337L3.24363 9.14383ZM9.00001 14L8.55582 14.6043L9.00524 14.9346L9.45094 14.5993L9.00001 14ZM14.6304 9.16281L15.2199 9.62641V9.62641L14.6304 9.16281ZM15.8889 2.99996L16.6165 2.81806V2.81806L15.8889 2.99996ZM13.8889 0.999962L13.6394 1.70724L13.6394 1.70724L13.8889 0.999962ZM10.8889 0.999962L10.5607 0.325603V0.325603L10.8889 0.999962ZM9.52506 2.45678C9.39046 2.29217 9.03523 1.86418 8.63656 1.43816C8.43755 1.22551 8.22031 1.00536 8.00911 0.81598C7.81074 0.638108 7.56983 0.443191 7.32825 0.325603L6.67177 1.67432C6.71608 1.69588 6.8286 1.77216 7.00771 1.93276C7.17398 2.08186 7.35826 2.26746 7.54133 2.46309C7.9068 2.85363 8.23791 3.25228 8.36385 3.4063L9.52506 2.45678ZM7.32825 0.325603C7.01356 0.17243 6.46649 0.0511965 5.87203 0.0161287C5.25619 -0.0202003 4.49602 0.0296718 3.75049 0.292686L4.24953 1.70724C4.75776 1.52794 5.30784 1.48545 5.78369 1.51353C6.01919 1.52742 6.22685 1.55806 6.3899 1.5931C6.47129 1.61059 6.53815 1.62844 6.58932 1.64448C6.61475 1.65244 6.63471 1.65946 6.6495 1.66512C6.65681 1.66792 6.66236 1.6702 6.66628 1.67188C6.67025 1.67357 6.67199 1.67442 6.67177 1.67432L7.32825 0.325603ZM3.75049 0.292686C3.04472 0.541676 2.48758 0.872814 2.06934 1.31426C1.64675 1.7603 1.40837 2.2742 1.27241 2.81806L2.72762 3.18186C2.81548 2.83041 2.95022 2.56547 3.15824 2.34591C3.3706 2.12177 3.70155 1.90056 4.24953 1.70724L3.75049 0.292686ZM1.27241 2.81806C1.05657 3.6814 0.864839 4.71289 1.00504 5.87128C1.14663 7.04106 1.61982 8.28914 2.65355 9.60677L3.8337 8.68089C2.95661 7.56292 2.60046 6.56921 2.49417 5.69104C2.38651 4.80147 2.52838 3.97883 2.72762 3.18186L1.27241 2.81806ZM2.65355 9.60677C3.29804 10.4283 4.81504 11.699 6.08927 12.7125C6.74249 13.232 7.35847 13.7045 7.81086 14.0468C8.03719 14.2181 8.22291 14.3571 8.35226 14.4534C8.41695 14.5016 8.46756 14.5391 8.50214 14.5647C8.51943 14.5774 8.53271 14.5872 8.54174 14.5939C8.54625 14.5972 8.5497 14.5998 8.55206 14.6015C8.55324 14.6024 8.55414 14.603 8.55477 14.6035C8.55509 14.6037 8.55533 14.6039 8.55551 14.604C8.55559 14.6041 8.55567 14.6042 8.55572 14.6042C8.55578 14.6042 8.55582 14.6043 9.00001 14C9.4442 13.3956 9.44421 13.3957 9.4442 13.3956C9.44418 13.3956 9.44415 13.3956 9.4441 13.3956C9.44399 13.3955 9.44382 13.3954 9.44358 13.3952C9.44309 13.3948 9.44233 13.3943 9.44129 13.3935C9.43922 13.392 9.43606 13.3897 9.43183 13.3865C9.42339 13.3803 9.41071 13.371 9.39404 13.3586C9.36069 13.334 9.31139 13.2974 9.24808 13.2503C9.12145 13.156 8.93888 13.0194 8.71604 12.8507C8.27008 12.5133 7.66413 12.0485 7.02302 11.5385C5.70861 10.4931 4.34742 9.3357 3.8337 8.68089L2.65355 9.60677ZM14.0408 8.69921C13.5246 9.35573 12.1899 10.5106 10.9086 11.5508C10.283 12.0588 9.69242 12.5218 9.25806 12.8579C9.041 13.0259 8.86325 13.162 8.73998 13.2559C8.67835 13.3028 8.63036 13.3392 8.59791 13.3638C8.58168 13.3761 8.56934 13.3854 8.56113 13.3916C8.55702 13.3947 8.55394 13.397 8.55192 13.3985C8.55091 13.3993 8.55017 13.3998 8.5497 13.4002C8.54946 13.4004 8.54929 13.4005 8.54919 13.4006C8.54913 13.4006 8.54911 13.4006 8.54908 13.4007C8.54907 13.4007 8.54908 13.4007 9.00001 14C9.45094 14.5993 9.45099 14.5992 9.45104 14.5992C9.45109 14.5992 9.45116 14.5991 9.45125 14.599C9.45142 14.5989 9.45166 14.5987 9.45196 14.5985C9.45257 14.598 9.45345 14.5974 9.4546 14.5965C9.45689 14.5948 9.46024 14.5923 9.46464 14.5889C9.47342 14.5823 9.48634 14.5726 9.50316 14.5598C9.5368 14.5344 9.58605 14.497 9.649 14.449C9.7749 14.3531 9.95567 14.2147 10.1761 14.0442C10.6166 13.7032 11.2168 13.2327 11.8541 12.7153C13.0988 11.7048 14.5793 10.4411 15.2199 9.62641L14.0408 8.69921ZM15.1613 3.18186C15.3608 3.98004 15.5018 4.80505 15.392 5.69752C15.2835 6.57886 14.9236 7.57657 14.0408 8.69921L15.2199 9.62641C16.259 8.3051 16.7364 7.0537 16.8808 5.88076C17.0238 4.71894 16.8331 3.6845 16.6165 2.81806L15.1613 3.18186ZM13.6394 1.70724C14.1874 1.90056 14.5183 2.12177 14.7307 2.34591C14.9387 2.56547 15.0734 2.83041 15.1613 3.18186L16.6165 2.81806C16.4805 2.2742 16.2422 1.7603 15.8196 1.31426C15.4013 0.872814 14.8442 0.541676 14.1384 0.292686L13.6394 1.70724ZM11.2171 1.67432C11.2169 1.67442 11.2187 1.67357 11.2226 1.67188C11.2266 1.6702 11.2321 1.66792 11.2394 1.66512C11.2542 1.65946 11.2742 1.65244 11.2996 1.64448C11.3508 1.62844 11.4176 1.61059 11.499 1.5931C11.6621 1.55806 11.8697 1.52742 12.1052 1.51353C12.5811 1.48545 13.1312 1.52794 13.6394 1.70724L14.1384 0.292686C13.3929 0.0296718 12.6327 -0.0202003 12.0169 0.0161287C11.4224 0.0511965 10.8754 0.17243 10.5607 0.325603L11.2171 1.67432ZM9.52506 3.4063C9.65101 3.25228 9.98211 2.85363 10.3476 2.46309C10.5307 2.26746 10.7149 2.08186 10.8812 1.93276C11.0603 1.77216 11.1728 1.69588 11.2171 1.67432L10.5607 0.325603C10.3191 0.443191 10.0782 0.638108 9.87981 0.81598C9.6686 1.00536 9.45136 1.22551 9.25236 1.43816C8.85369 1.86418 8.49845 2.29217 8.36385 2.45678L9.52506 3.4063Z" fill="#748592"/>
</svg>
