<svg width="17" height="14" viewBox="0 0 17 14" fill="none" xmlns="http://www.w3.org/2000/svg">
<path fill-rule="evenodd" clip-rule="evenodd" d="M15 0H2C0.89543 0 0 0.89543 0 2V12C0 13.1046 0.89543 14 2 14H15C16.1046 14 17 13.1046 17 12V2C17 0.89543 16.1046 0 15 0ZM1.5 2C1.5 1.72386 1.72386 1.5 2 1.5H15C15.2761 1.5 15.5 1.72386 15.5 2V12C15.5 12.2761 15.2761 12.5 15 12.5H2C1.72386 12.5 1.5 12.2761 1.5 12V2Z" fill="#667580"/>
<path d="M1 2.1713L7.25061 7.17179C8.25496 7.97527 9.68208 7.97527 10.6864 7.17179L16.937 2.1713L16 1L9.74939 6.00049C9.29287 6.36571 8.64418 6.36571 8.18765 6.00049L1.93704 1L1 2.1713Z" fill="#667580"/>
</svg>
