<svg width="17" height="18" viewBox="0 0 17 18" fill="none" xmlns="http://www.w3.org/2000/svg">
<path fill-rule="evenodd" clip-rule="evenodd" d="M15 6.5C15 2.91015 12.0899 0 8.5 0C4.91015 0 2 2.91015 2 6.5V11L0 14H17L15 11V6.5ZM13.5 6.5V11.4542L14.1972 12.5H2.80278L3.5 11.4542V6.5C3.5 3.73858 5.73858 1.5 8.5 1.5C11.2614 1.5 13.5 3.73858 13.5 6.5Z" fill="#667580"/>
<path fill-rule="evenodd" clip-rule="evenodd" d="M12.3649 13H4.13509C4.13509 13 4 13.046 4 13.25C4 15.5972 5.90279 17.5 8.25 17.5C10.5972 17.5 12.5 15.5972 12.5 13.25C12.5 13.046 12.3649 13 12.3649 13ZM10.9888 13.5C10.8625 14.9016 9.68451 16 8.25 16C6.81549 16 5.63752 14.9016 5.51121 13.5H10.9888Z" fill="#667580"/>
</svg>
