<svg width="16" height="13" viewBox="0 0 16 13" fill="none" xmlns="http://www.w3.org/2000/svg">
<path fill-rule="evenodd" clip-rule="evenodd" d="M7.25908 3.06431C7.25908 4.82231 6.65508 5.66831 4.94208 5.66831C3.22908 5.66831 2.62408 4.78331 2.62408 3.06431C2.62408 1.59231 3.71808 0.500305 4.94208 0.500305C6.16508 0.500305 7.25908 1.59231 7.25908 3.06431Z" stroke="#1DA1F2"/>
<path fill-rule="evenodd" clip-rule="evenodd" d="M1.54909 11.5311C0.809091 11.5311 0.301091 10.7771 0.575091 10.0851C1.22209 8.45108 2.93309 7.28308 4.94209 7.28308C6.95009 7.28308 8.66109 8.45108 9.30809 10.0851C9.58209 10.7771 9.07409 11.5311 8.33409 11.5311H1.54909Z" stroke="#1DA1F2"/>
<path fill-rule="evenodd" clip-rule="evenodd" d="M13.2591 3.06431C13.2591 4.82231 12.6551 5.66831 10.9421 5.66831C9.22908 5.66831 8.62408 4.78331 8.62408 3.06431C8.62408 1.59231 9.71808 0.500305 10.9421 0.500305C12.1651 0.500305 13.2591 1.59231 13.2591 3.06431Z" stroke="#1DA1F2"/>
<path d="M8.33428 11.5311H14.3343C15.0743 11.5311 15.5823 10.7771 15.3083 10.0851C14.6613 8.45108 12.9503 7.28308 10.9413 7.28308C9.79428 7.28308 8.75228 7.67308 7.94128 8.30408" stroke="#1DA1F2"/>
</svg>
