<svg width="20" height="14" viewBox="0 0 20 14" fill="none" xmlns="http://www.w3.org/2000/svg">
<path fill-rule="evenodd" clip-rule="evenodd" d="M7.75258 4.43004L7 5.08855L4.37629 2.09002V10.2593C4.37629 11.0877 5.04786 11.7593 5.87629 11.7593H11.3763V12.7593H5.87629C4.49558 12.7593 3.37629 11.64 3.37629 10.2593V2.09002L0.752577 5.08855L0 4.43004L3.87629 0L7.75258 4.43004ZM13.5 2H8V1H13.5C14.8807 1 16 2.11929 16 3.5V11.6693L18.6237 8.67075L19.3763 9.32925L15.5 13.7593L11.6237 9.32925L12.3763 8.67075L15 11.6693V3.5C15 2.67157 14.3284 2 13.5 2Z" fill="#657786"/>
</svg>
